<?xml version="1.0"?>
<!DOCTYPE svg PUBLIC "-//W3C//DTD SVG 1.1//EN" 
  "http://www.w3.org/Graphics/SVG/1.1/DTD/svg11.dtd">
<svg version="1.1"
    xmlns="http://www.w3.org/2000/svg"
    xmlns:xlink="http://www.w3.org/1999/xlink"
    width="400px" height="400px" 
    viewBox="0 0 40 40" style="background: black"
    >
    

<defs>
  <g id="humanShip">
    <rect x="0" y="0" width="8" height="1" fill="white"/>
    <rect x="1" y="1" width="6" height="2" fill="white"/>
    <rect x="3.5" y="3" width="1" height="1" fill="white"/>
    
      
  </g>
  <g id="alienShip1">
    <rect x="2" y="25" width="8" height="8" fill="#8a6636"/>
    <rect x="2" y="31" width="1" height="2" fill="black"/>
    <rect x="3" y="30" width="1" height="3" fill="black"/>
    <rect x="4" y="31" width="1" height="1" fill="black"/>
    <rect x="5" y="32" width="2" height="1" fill="black"/>
    <rect x="7" y="31" width="1" height="1" fill="black"/>
    <rect x="8" y="30" width="1" height="3" fill="black"/>
    <rect x="9" y="31" width="1" height="2" fill="black"/>
    <rect x="4" y="29" width="1" height="1" fill="black"/>
    <rect x="7" y="29" width="1" height="1" fill="black"/>
    <rect x="7" y="29" width="1" height="1" fill="black"/>
    <rect x="8" y="26" width="1" height="2" fill="black"/>
    <rect x="3" y="26" width="1" height="2" fill="black"/>
    <rect x="4" y="25" width="4" height="1" fill="black"/>
    <rect x="4" y="26" width="1" height="1" fill="black"/>
    <rect x="7" y="26" width="1" height="1" fill="black"/>

    <animateTransform attributeName="transform" type="rotate"
      keyTimes="0;0.25;0.75;1" values="16;32;0;16;"
      begin="0s" dur="10s" repeatCount="indefinite"/>
      
  </g>
  <g id="laser">
    <rect x="3.70" y="5" width="0.5" height="3" fill="red"/>
    <animateTransform attributeName="transform" type="translate"
      keyTimes="0;0.25;0.75;1" values="16;32;0;16;"
      begin="0s" dur="10s" repeatCount="indefinite"/>
  </g>
</defs>

<g transform= "translate(0,40) scale(1,-1)">
  <use xlink:href="#humanShip">
    <animateTransform attributeName="transform" type="translate"
      keyTimes="0;0.25;0.75;1" values="16;32;0;16;"
      begin="0s" dur="10s" repeatCount="indefinite"/>
  </use>
  <use xlink:href="#alienShip1">
    <animateTransform attributeName="transform" type="translate"
      keyTimes="0;0.25;0.75;1" values="16;32;0;16;"
      begin="0s" dur="10s" repeatCount="indefinite"/>
  </use>
  <use xlink:href="#laser">
    <animateMotion
      path="M0,0 0 90 "
      begin="0s" dur="1s" repeatCount="indefinite"/>
  </use>
</g>
</svg>